<svg xmlns="http://www.w3.org/2000/svg" xmlns:xlink="http://www.w3.org/1999/xlink" viewBox="0 0 343.91 208.25"><defs><style>.cls-1{isolation:isolate;}.cls-2{fill:url(#linear-gradient);}.cls-3{fill:url(#linear-gradient-2);}.cls-4,.cls-6{mix-blend-mode:multiply;opacity:0.7;}.cls-4{fill:url(#linear-gradient-3);}.cls-5{fill:url(#linear-gradient-4);}.cls-6{fill:url(#linear-gradient-5);}.cls-7{fill:#fff;}</style><linearGradient id="linear-gradient" x1="91.17" y1="56.02" x2="234.5" y2="-21.93" gradientUnits="userSpaceOnUse"><stop offset="0" stop-color="#b3822c"/><stop offset="1" stop-color="#e4cd69"/></linearGradient><linearGradient id="linear-gradient-2" x1="106.67" y1="84.54" x2="250.01" y2="6.59" xlink:href="#linear-gradient"/><linearGradient id="linear-gradient-3" x1="146.62" y1="62.71" x2="153.76" y2="68.13" gradientUnits="userSpaceOnUse"><stop offset="0" stop-color="#b3822c"/><stop offset="1" stop-color="#e4cd69" stop-opacity="0"/></linearGradient><linearGradient id="linear-gradient-4" x1="121.55" y1="111.9" x2="264.89" y2="33.95" xlink:href="#linear-gradient"/><linearGradient id="linear-gradient-5" x1="217.09" y1="62.71" x2="224.23" y2="68.13" xlink:href="#linear-gradient-3"/></defs><g class="cls-1"><g id="Layer_2" data-name="Layer 2"><g id="Layer_1-2" data-name="Layer 1"><path class="cls-2" d="M116.9,89.18a12.51,12.51,0,0,1-4.26-.75,12.35,12.35,0,0,1-8.3-11.77V0L150.4,55.34,126.51,84.57A12.35,12.35,0,0,1,116.9,89.18Zm.53-53V75l16-19.57Z"/><polygon class="cls-3" points="167.63 76.04 150.4 55.34 177.17 22.59 203.94 55.34 187.89 76.04 203.75 76.04 220.91 55.42 177.17 1.91 133.43 55.42 150.59 76.04 167.63 76.04"/><polygon class="cls-4" points="150.4 55.34 141.96 65.67 150.4 75.81 158.92 65.58 150.4 55.34"/><path class="cls-5" d="M237.44,89.18a12.35,12.35,0,0,1-9.61-4.61L203.94,55.34,250,0V76.66a12.58,12.58,0,0,1-12.56,12.52ZM220.91,55.42l16,19.57V36.19Z"/><polygon class="cls-6" points="220.87 55.34 212.43 65.67 220.87 75.81 229.39 65.58 220.87 55.34"/><path class="cls-7" d="M93.35,122.73v9.82h5.44a7.33,7.33,0,0,0,1.95-.21,2.66,2.66,0,0,0,1.16-.66,2.41,2.41,0,0,0,.59-1.12,9.77,9.77,0,0,0,.22-1.62h.68v8.65h-.68a15,15,0,0,0-.32-1.78,2.66,2.66,0,0,0-.57-1.14,2.29,2.29,0,0,0-1.11-.6,8.18,8.18,0,0,0-1.92-.17H93.35v8.2c0,.62,0,1.11,0,1.48a1.65,1.65,0,0,0,.22.83.82.82,0,0,0,.6.37,6.1,6.1,0,0,0,1.2.08h4.22c.71,0,1.31,0,1.8-.05a6,6,0,0,0,1.27-.22,3.47,3.47,0,0,0,1-.45,8.23,8.23,0,0,0,.87-.72,14.14,14.14,0,0,0,2.33-3.42h.74l-2.17,6.23H86.27v-.68h.87a3.89,3.89,0,0,0,.74-.08,3.67,3.67,0,0,0,.73-.24,2.44,2.44,0,0,0,.61-.39,1.36,1.36,0,0,0,.38-.58,8.24,8.24,0,0,0,.22-2.4V125.71c0-1.58-.15-2.56-.46-2.92a2.83,2.83,0,0,0-2.22-.74h-.87v-.69h19.14v5.45H105a14.64,14.64,0,0,0-.59-2.15,3,3,0,0,0-.84-1.24,2.57,2.57,0,0,0-1.32-.56,13.07,13.07,0,0,0-2.07-.13Z"/><path class="cls-7" d="M146.76,139.37l.6.11-2.13,6.75H126v-.68h1a2.55,2.55,0,0,0,2.24-1,5.91,5.91,0,0,0,.39-2.71V125.77a5.14,5.14,0,0,0-.52-2.9,2.64,2.64,0,0,0-2.11-.82h-1v-.69h11.27v.69a13.05,13.05,0,0,0-1.68.09,5,5,0,0,0-1.11.28,2.09,2.09,0,0,0-.68.42,2.71,2.71,0,0,0-.41.55,8.4,8.4,0,0,0-.28,2.82v15.62a6.27,6.27,0,0,0,.2,1.86,1.2,1.2,0,0,0,.76.79,13.52,13.52,0,0,0,2.88.17h1.8a13.55,13.55,0,0,0,4-.41,4.36,4.36,0,0,0,1.1-.55,5.73,5.73,0,0,0,1-.93,9,9,0,0,0,1-1.4A18.9,18.9,0,0,0,146.76,139.37Z"/><path class="cls-7" d="M176.54,145.55v.68H165.9v-.68h.87a5.7,5.7,0,0,0,1.16-.1,1.46,1.46,0,0,0,.84-.46,2.49,2.49,0,0,0,.5-1.12,9.19,9.19,0,0,0,.18-2V125.77c0-.57,0-1,0-1.41a4.85,4.85,0,0,0-.14-.92,1.4,1.4,0,0,0-.28-.56,2.6,2.6,0,0,0-.52-.39,3.62,3.62,0,0,0-1.7-.44h-.87v-.69h10.64v.69h-.88a5.08,5.08,0,0,0-1.16.11,1.46,1.46,0,0,0-.83.48,2.54,2.54,0,0,0-.51,1.12,9,9,0,0,0-.18,2v16.06c0,.58,0,1.06,0,1.42a3.4,3.4,0,0,0,.14.9,1.21,1.21,0,0,0,.31.56,2.62,2.62,0,0,0,.53.4,3.33,3.33,0,0,0,1.67.44Z"/><path class="cls-7" d="M216,121.36v5.86h-.41a5.21,5.21,0,0,0-1.38-3.32,4.63,4.63,0,0,0-3.19-1h-3.5v19a8.54,8.54,0,0,0,.18,2,2.27,2.27,0,0,0,.5,1.08,1.42,1.42,0,0,0,.82.45,5.59,5.59,0,0,0,1.15.1H211v.68H200.49v-.68h.87a5.54,5.54,0,0,0,1.15-.11,1.47,1.47,0,0,0,.82-.48,2.59,2.59,0,0,0,.51-1.08,8.31,8.31,0,0,0,.17-1.94v-19h-3a9.83,9.83,0,0,0-2,.18,3.68,3.68,0,0,0-1.49.66,3.27,3.27,0,0,0-1,1.31,6.15,6.15,0,0,0-.45,2.15h-.68v-5.86Z"/><path class="cls-7" d="M241.86,122.73v9.82h5.45a7.3,7.3,0,0,0,1.94-.21,2.66,2.66,0,0,0,1.16-.66,2.41,2.41,0,0,0,.59-1.12,9.77,9.77,0,0,0,.22-1.62h.68v8.65h-.68a15,15,0,0,0-.32-1.78,2.56,2.56,0,0,0-.57-1.14,2.2,2.2,0,0,0-1.11-.6,8.14,8.14,0,0,0-1.91-.17h-5.45v8.2c0,.62,0,1.11,0,1.48a1.65,1.65,0,0,0,.22.83.86.86,0,0,0,.6.37,6.1,6.1,0,0,0,1.2.08h4.22c.71,0,1.31,0,1.8-.05a6.05,6.05,0,0,0,1.28-.22,3.55,3.55,0,0,0,.94-.45,8.23,8.23,0,0,0,.87-.72,14.14,14.14,0,0,0,2.33-3.42h.74l-2.16,6.23H234.78v-.68h.87a3.81,3.81,0,0,0,.74-.08,3.47,3.47,0,0,0,.73-.24,2.44,2.44,0,0,0,.61-.39,1.36,1.36,0,0,0,.38-.58,8.24,8.24,0,0,0,.22-2.4V125.71c0-1.58-.15-2.56-.46-2.92a2.83,2.83,0,0,0-2.22-.74h-.87v-.69h19.15v5.45h-.44a13.49,13.49,0,0,0-.59-2.15,3,3,0,0,0-.83-1.24,2.64,2.64,0,0,0-1.33-.56,13.07,13.07,0,0,0-2.07-.13Z"/><path class="cls-7" d="M24.73,207.67H18.11L9.68,196.05l-.83,0H7.66l-.58,0v7.22a9.2,9.2,0,0,0,.18,2.06,2.48,2.48,0,0,0,.52,1.13,1.49,1.49,0,0,0,.82.45,7,7,0,0,0,1.08.08h1v.68H0V207H1a2.55,2.55,0,0,0,2.24-1,6.1,6.1,0,0,0,.38-2.71V187.21a5.06,5.06,0,0,0-.52-2.9,2.61,2.61,0,0,0-2.1-.82H0v-.68H9.06a34.15,34.15,0,0,1,3.44.15,11.89,11.89,0,0,1,2.38.45,7.59,7.59,0,0,1,1.75.83,6.34,6.34,0,0,1,1.44,1.29,6.09,6.09,0,0,1,1,1.68,5.5,5.5,0,0,1,.36,2,5.83,5.83,0,0,1-1.48,4,8.51,8.51,0,0,1-4.63,2.38l5.12,7.11c.6.83,1.14,1.5,1.6,2a7.24,7.24,0,0,0,1.4,1.26,4.91,4.91,0,0,0,1.47.68,10.47,10.47,0,0,0,1.85.33ZM7.08,194.9H7.7l.42,0a10.78,10.78,0,0,0,3.12-.41,6.72,6.72,0,0,0,2.25-1.15,4.8,4.8,0,0,0,1.35-1.74,5.25,5.25,0,0,0,.45-2.18,5.87,5.87,0,0,0-.38-2.12,4.83,4.83,0,0,0-2.79-2.74A5.84,5.84,0,0,0,10,184.2a14.93,14.93,0,0,0-2.88.36Z"/><path class="cls-7" d="M49.06,184.17V194H54.5a7.27,7.27,0,0,0,2-.22,2.66,2.66,0,0,0,1.16-.66A2.41,2.41,0,0,0,58.2,192a9.62,9.62,0,0,0,.22-1.62h.68V199h-.68a15.41,15.41,0,0,0-.32-1.78,2.66,2.66,0,0,0-.57-1.14,2.29,2.29,0,0,0-1.11-.6,8.18,8.18,0,0,0-1.92-.17H49.06v8.2c0,.62,0,1.12,0,1.48a1.72,1.72,0,0,0,.22.84.84.84,0,0,0,.6.36,6,6,0,0,0,1.2.09h4.22q1.06,0,1.8-.06A5.38,5.38,0,0,0,58.4,206a3.47,3.47,0,0,0,1-.45,8.23,8.23,0,0,0,.87-.72,13.74,13.74,0,0,0,2.33-3.42h.74l-2.17,6.23H42V207h.87a3.89,3.89,0,0,0,.74-.08,3.67,3.67,0,0,0,.73-.24,2.19,2.19,0,0,0,.61-.39,1.36,1.36,0,0,0,.38-.58,8.24,8.24,0,0,0,.22-2.4V187.16c0-1.59-.15-2.57-.46-2.93a2.87,2.87,0,0,0-2.22-.74H42v-.68H61.12v5.44h-.43a14.64,14.64,0,0,0-.59-2.15,3,3,0,0,0-.84-1.24,2.57,2.57,0,0,0-1.32-.56,14.39,14.39,0,0,0-2.07-.13Z"/><path class="cls-7" d="M98.15,182.26v8.59h-.68a9.06,9.06,0,0,0-2.27-5.31,6.2,6.2,0,0,0-4.6-1.83,4.51,4.51,0,0,0-1.75.33,5,5,0,0,0-1.4.86,3.78,3.78,0,0,0-.93,1.22,3.35,3.35,0,0,0-.32,1.42,3.19,3.19,0,0,0,.27,1.3,7.79,7.79,0,0,0,1.7,1.93c1.58,1,3,1.83,4.24,2.49s2.74,1.6,4.73,2.9a6.67,6.67,0,0,1,2,2.34,6.24,6.24,0,0,1,.68,2.83,6.35,6.35,0,0,1-.57,2.65,6.81,6.81,0,0,1-1.6,2.2,7.89,7.89,0,0,1-2.48,1.51,8.76,8.76,0,0,1-3.17.56,11.65,11.65,0,0,1-2-.17,7.86,7.86,0,0,1-.86-.23l-1.49-.42L86.12,207a5.34,5.34,0,0,0-.8-.19.94.94,0,0,0-.72.27,2.19,2.19,0,0,0-.4,1.15h-.69v-8.54h.69a13.34,13.34,0,0,0,1.29,4,4.64,4.64,0,0,0,1,1.22,7.56,7.56,0,0,0,1.45,1,7.71,7.71,0,0,0,1.74.65,7.51,7.51,0,0,0,1.88.24,6.07,6.07,0,0,0,2.07-.33,4.93,4.93,0,0,0,1.56-.89,4,4,0,0,0,1-1.3,3.77,3.77,0,0,0,.34-1.56,3.84,3.84,0,0,0-.51-1.86,6,6,0,0,0-1.71-1.83c-.78-.48-1.71-1-2.79-1.67Q88.44,195.61,86,194a7.93,7.93,0,0,1-2-2.34,5.84,5.84,0,0,1-.69-2.83,6,6,0,0,1,.54-2.5,6.57,6.57,0,0,1,1.52-2.1,7.3,7.3,0,0,1,2.31-1.42,7.9,7.9,0,0,1,2.9-.52,10.56,10.56,0,0,1,4.19,1l.87.35a1.27,1.27,0,0,0,.58.11,1.13,1.13,0,0,0,.79-.27,2.15,2.15,0,0,0,.47-1.15Z"/><path class="cls-7" d="M130.2,207v.68H119.56V207h.87a5.7,5.7,0,0,0,1.16-.1,1.46,1.46,0,0,0,.84-.46,2.6,2.6,0,0,0,.51-1.12,9.87,9.87,0,0,0,.17-2V187.21c0-.56,0-1,0-1.41a4.7,4.7,0,0,0-.13-.91,1.39,1.39,0,0,0-.29-.57,2.6,2.6,0,0,0-.52-.39,3.62,3.62,0,0,0-1.7-.44h-.87v-.68H130.2v.68h-.88a5.71,5.71,0,0,0-1.16.11,1.46,1.46,0,0,0-.83.48,2.54,2.54,0,0,0-.51,1.12,9,9,0,0,0-.18,2v16.06c0,.58,0,1.06,0,1.42a3.4,3.4,0,0,0,.14.9,1.41,1.41,0,0,0,.31.57,2.91,2.91,0,0,0,.53.39,3.33,3.33,0,0,0,1.67.44Z"/><path class="cls-7" d="M148.57,207.67V207h1a5.48,5.48,0,0,0,1.13-.11,1.52,1.52,0,0,0,.82-.49,2.85,2.85,0,0,0,.5-1.12,8.86,8.86,0,0,0,.18-2V187.21a5.06,5.06,0,0,0-.52-2.9,2.63,2.63,0,0,0-2.11-.82h-1v-.68h10.12a22,22,0,0,1,8.48,1.28,10.13,10.13,0,0,1,4.68,4.22,13,13,0,0,1,1.77,6.81,14,14,0,0,1-.88,5.06,10.85,10.85,0,0,1-2.66,4,12.24,12.24,0,0,1-4.36,2.59,17.93,17.93,0,0,1-6.05.93Zm7.11-1.8a17.61,17.61,0,0,0,3.88.52,9.72,9.72,0,0,0,3.91-.78,9.16,9.16,0,0,0,3.14-2.22,10.42,10.42,0,0,0,2.08-3.49,13.23,13.23,0,0,0,.75-4.59,13.77,13.77,0,0,0-.74-4.64,9.93,9.93,0,0,0-2.08-3.5,9,9,0,0,0-3.17-2.2,10.32,10.32,0,0,0-4-.77,15.09,15.09,0,0,0-3.75.55Z"/><path class="cls-7" d="M199.71,184.17V194h5.44a7.24,7.24,0,0,0,1.94-.22,2.76,2.76,0,0,0,1.17-.66,2.4,2.4,0,0,0,.58-1.12,8.7,8.7,0,0,0,.22-1.62h.69V199h-.69a15.65,15.65,0,0,0-.31-1.78,2.57,2.57,0,0,0-.58-1.14,2.21,2.21,0,0,0-1.1-.6,8.29,8.29,0,0,0-1.92-.17h-5.44v8.2c0,.62,0,1.12,0,1.48a1.83,1.83,0,0,0,.22.84.88.88,0,0,0,.61.36,6,6,0,0,0,1.2.09H206c.71,0,1.31,0,1.81-.06a5.48,5.48,0,0,0,1.27-.22,3.28,3.28,0,0,0,.94-.45,7.37,7.37,0,0,0,.88-.72,13.76,13.76,0,0,0,2.32-3.42h.74l-2.16,6.23H192.62V207h.88a3.79,3.79,0,0,0,.73-.08,3.47,3.47,0,0,0,.73-.24,2.24,2.24,0,0,0,.62-.39,1.36,1.36,0,0,0,.38-.58,8.62,8.62,0,0,0,.22-2.4V187.16c0-1.59-.16-2.57-.47-2.93a2.83,2.83,0,0,0-2.21-.74h-.88v-.68h19.15v5.44h-.44a14.8,14.8,0,0,0-.58-2.15,3,3,0,0,0-.84-1.24,2.64,2.64,0,0,0-1.33-.56,14.14,14.14,0,0,0-2.06-.13Z"/><path class="cls-7" d="M231.1,182.81h6.73L253,201.46V187.13a8.8,8.8,0,0,0-.18-2,2.31,2.31,0,0,0-.52-1.09,1.51,1.51,0,0,0-.83-.45,5.52,5.52,0,0,0-1.13-.1h-.87v-.68h8.67v.68h-.9a5.54,5.54,0,0,0-1.15.11,1.48,1.48,0,0,0-.82.49,2.56,2.56,0,0,0-.49,1.1,8.89,8.89,0,0,0-.17,1.94v21H254l-16.39-20v15.32a8.71,8.71,0,0,0,.18,2,2.36,2.36,0,0,0,.5,1.08,1.44,1.44,0,0,0,.82.44,7.45,7.45,0,0,0,1.12.08h.88v.68h-8.65V207h.88a5.54,5.54,0,0,0,1.15-.11,1.49,1.49,0,0,0,.83-.48,2.27,2.27,0,0,0,.51-1.08,8.89,8.89,0,0,0,.17-1.94V186.09c-.37-.44-.68-.78-.92-1a7.48,7.48,0,0,0-.7-.63,3.55,3.55,0,0,0-.71-.41q-.39-.16-1-.36a5.94,5.94,0,0,0-1.61-.16Z"/><path class="cls-7" d="M298.11,182.26l.57,8.45h-.57a10.77,10.77,0,0,0-3.25-5.47,7.83,7.83,0,0,0-5-1.67,8.39,8.39,0,0,0-3.53.73,7.08,7.08,0,0,0-2.78,2.23,11.13,11.13,0,0,0-1.82,3.77,19.37,19.37,0,0,0-.65,5.36,15.54,15.54,0,0,0,.61,4.52,9.75,9.75,0,0,0,1.81,3.46,8.08,8.08,0,0,0,2.91,2.22,9.7,9.7,0,0,0,4,.78,8.7,8.7,0,0,0,4.26-1,13,13,0,0,0,4.08-4.1l.57.36a13.27,13.27,0,0,1-4.36,4.85,11,11,0,0,1-5.92,1.55,12.47,12.47,0,0,1-4.87-.93,11.2,11.2,0,0,1-3.82-2.61,12.16,12.16,0,0,1-2.5-4,13.85,13.85,0,0,1-.9-5.07,14.08,14.08,0,0,1,1.67-6.84,11.72,11.72,0,0,1,4.56-4.82,12.5,12.5,0,0,1,6.41-1.72,11.69,11.69,0,0,1,5.3,1.31,2.73,2.73,0,0,0,1.1.41,1.2,1.2,0,0,0,1-.49,2.92,2.92,0,0,0,.57-1.23Z"/><path class="cls-7" d="M335.24,182.81h8.67v.68h-.49a3.72,3.72,0,0,0-2.24.94,13,13,0,0,0-2.66,3.27l-6,9.44v6.24a8.54,8.54,0,0,0,.18,2,2.27,2.27,0,0,0,.52,1.08,1.5,1.5,0,0,0,.85.45,5.76,5.76,0,0,0,1.16.1h.8v.68H325.48V207h.9a5.54,5.54,0,0,0,1.15-.11,1.5,1.5,0,0,0,.82-.48,2.36,2.36,0,0,0,.49-1.08,9,9,0,0,0,.16-1.94v-5.91l-6.81-10.4-1-1.49a9.79,9.79,0,0,0-.62-.8,3.65,3.65,0,0,0-.37-.33,3.74,3.74,0,0,0-.64-.43,7.48,7.48,0,0,0-.85-.37,2.94,2.94,0,0,0-1-.16v-.68h10.62v.68h-.55a3.34,3.34,0,0,0-.82.1,2.52,2.52,0,0,0-.74.28,1.62,1.62,0,0,0-.53.51,1.26,1.26,0,0,0-.2.72,1.85,1.85,0,0,0,.27.92c.2.39.48.88.85,1.46l5.17,8,4.89-7.66a6.25,6.25,0,0,0,1.1-2.57,3.69,3.69,0,0,0-.18-.71,1.26,1.26,0,0,0-.41-.56,2,2,0,0,0-.75-.37,4,4,0,0,0-1.18-.14Z"/></g></g></g></svg>